<svg width="1191" height="325" viewBox="0 0 1191 325" fill="none" xmlns="http://www.w3.org/2000/svg">
<path d="M42.0922 199.133C42.242 205.357 47.3297 210.292 53.5161 210.292C53.6096 210.292 53.7031 210.291 53.7973 210.289C60.1096 210.137 65.1019 204.898 64.9503 198.583C63.3846 133.675 85.9645 69.2314 129.319 19.1C133.449 14.3253 132.925 7.10513 128.149 2.97846C123.377 -1.14821 116.155 -0.628576 112.024 4.14613C64.0131 59.6758 40.425 129.964 42.0922 199.133Z" fill="url(#paint0_radial)"/>
<path d="M94.5908 205.604C94.6238 205.604 94.6575 205.604 94.6899 205.604C101.003 205.552 106.079 200.386 106.025 194.077C105.469 128.949 133.752 64.0593 186.817 20.2493C191.686 16.2327 192.375 9.02478 188.355 4.15837C184.335 -0.714161 177.13 -1.40501 172.261 2.61773C114.638 50.1875 82.5385 121.27 83.1602 194.266C83.214 200.551 88.3232 205.604 94.5908 205.604" fill="url(#paint1_radial)"/>
<path d="M179.633 52.578C143.366 91.6561 123.801 142.509 124.546 195.777C124.632 202.031 129.734 207.048 135.973 207.048C136.028 207.048 136.082 207.048 136.136 207.047C142.45 206.959 147.496 201.768 147.408 195.459C146.746 148.097 164.142 102.881 196.392 68.131C200.688 63.503 200.417 56.2706 195.79 51.9789C191.159 47.681 183.928 47.95 179.633 52.578Z" fill="url(#paint2_radial)"/>
<path d="M218.787 145.81C215.125 140.669 207.988 139.47 202.843 143.126C177.506 161.161 161.69 190.488 160.536 221.569C156.576 334.425 36.7348 324.681 24.2686 219.61C17.5308 162.843 34.9485 88.3119 67.6109 34.1516C70.8707 28.7472 69.1314 21.7227 63.7245 18.4581C58.3177 15.1995 51.2907 16.9419 48.0309 22.3463C12.9469 80.5232 -5.72767 160.88 1.56278 222.305C18.1465 362.052 182.716 356.1 183.392 222.238C184.339 198.271 196.558 175.669 216.104 161.754C221.248 158.092 222.448 150.952 218.787 145.81" fill="url(#paint3_radial)"/>
<path d="M109.758 238.77C109.758 245.416 115.146 250.804 121.791 250.804C128.437 250.804 133.825 245.416 133.825 238.77C133.825 232.125 128.437 226.738 121.791 226.738C115.146 226.738 109.758 232.125 109.758 238.77Z" fill="url(#paint4_radial)"/>
<path d="M57.2356 243.915C57.2356 250.561 62.6235 255.948 69.269 255.948C75.9144 255.948 81.3023 250.561 81.3023 243.915C81.3023 237.269 75.9144 231.881 69.269 231.881C62.6235 231.881 57.2356 237.269 57.2356 243.915Z" fill="url(#paint5_radial)"/>
<path d="M388.024 248.804C386.117 249.324 383.169 249.844 379.18 250.363C375.192 250.883 371.29 251.142 367.475 251.142C359.498 251.142 353.515 249.844 349.527 247.246C345.538 244.475 343.544 238.76 343.544 230.1V195.03C339.209 188.622 334.527 181.521 329.498 173.728C324.469 165.934 319.526 157.968 314.671 149.828C309.815 141.688 305.307 133.721 301.145 125.928C296.983 117.961 293.601 110.688 291 104.106C293.254 100.989 296.289 98.1315 300.104 95.5336C304.093 92.9358 308.948 91.6369 314.671 91.6369C321.434 91.6369 326.896 93.0224 331.058 95.7934C335.394 98.5644 339.469 103.76 343.284 111.38L364.874 154.764H366.434C368.862 149.395 370.943 144.546 372.677 140.216C374.585 135.713 376.406 131.297 378.14 126.967C379.874 122.464 381.695 117.875 383.602 113.199C385.51 108.35 387.677 102.808 390.105 96.5728C393.227 95.0141 396.695 93.8018 400.51 92.9358C404.325 92.0699 407.967 91.6369 411.435 91.6369C417.504 91.6369 422.62 93.2822 426.782 96.5728C431.117 99.6901 433.285 104.453 433.285 110.861C433.285 112.939 432.851 115.45 431.984 118.394C431.117 121.339 429.123 125.841 426.002 131.903C422.88 137.791 418.285 145.845 412.215 156.063C406.319 166.281 398.256 179.616 388.024 196.069V248.804Z" fill="white"/>
<path d="M454.671 116.576C454.671 109.129 456.839 103.24 461.174 98.9108C465.51 94.5811 471.406 92.4163 478.862 92.4163H564.702C565.916 94.3213 566.956 96.8326 567.823 99.9499C568.864 103.067 569.384 106.358 569.384 109.822C569.384 116.403 567.91 121.079 564.962 123.85C562.187 126.621 558.459 128.006 553.777 128.006H498.892V152.166H557.418C558.632 154.071 559.673 156.582 560.54 159.7C561.58 162.644 562.1 165.848 562.1 169.311C562.1 175.893 560.713 180.569 557.939 183.34C555.164 186.111 551.436 187.496 546.753 187.496H498.892V214.773H565.742C566.956 216.678 567.996 219.189 568.864 222.307C569.904 225.424 570.424 228.715 570.424 232.178C570.424 238.76 568.95 243.522 566.002 246.466C563.228 249.237 559.499 250.623 554.817 250.623H478.862C471.406 250.623 465.51 248.458 461.174 244.128C456.839 239.799 454.671 233.91 454.671 226.463V116.576Z" fill="white"/>
<path d="M661.657 128.786H597.668C596.454 126.881 595.327 124.283 594.286 120.992C593.246 117.702 592.725 114.238 592.725 110.601C592.725 103.847 594.199 98.9974 597.147 96.0532C600.269 93.109 604.257 91.6369 609.113 91.6369H706.137C713.767 97.8717 717.582 106.185 717.582 116.576C717.582 120.906 716.542 125.235 714.461 129.565C712.553 133.721 710.039 137.705 706.917 141.515L647.87 212.695H714.461C715.675 214.6 716.802 217.198 717.842 220.488C718.883 223.779 719.403 227.243 719.403 230.88C719.403 237.634 717.842 242.483 714.721 245.427C711.773 248.371 707.871 249.844 703.016 249.844H600.529C597.581 247.419 595.153 244.128 593.246 239.972C591.338 235.815 590.384 231.053 590.384 225.684C590.384 221.354 591.511 216.938 593.766 212.435C596.02 207.932 598.708 203.776 601.829 199.966L661.657 128.786Z" fill="white"/>
<path d="M883.686 191.653C883.686 201.005 882.039 209.577 878.744 217.371C875.623 224.991 871.027 231.572 864.958 237.114C858.888 242.483 851.518 246.64 842.848 249.584C834.177 252.528 824.379 254 813.454 254C802.529 254 792.731 252.528 784.061 249.584C775.39 246.64 768.02 242.483 761.951 237.114C755.881 231.572 751.199 224.991 747.904 217.371C744.783 209.577 743.222 201.005 743.222 191.653V92.4163C745.13 92.0699 748.164 91.6369 752.326 91.1174C756.488 90.4246 760.477 90.0783 764.292 90.0783C768.28 90.0783 771.749 90.4246 774.697 91.1174C777.818 91.6369 780.419 92.6761 782.5 94.2347C784.581 95.7934 786.142 97.9583 787.182 100.729C788.223 103.5 788.743 107.137 788.743 111.64V190.873C788.743 199.186 790.997 205.681 795.506 210.357C800.188 215.033 806.171 217.371 813.454 217.371C820.911 217.371 826.894 215.033 831.402 210.357C835.911 205.681 838.166 199.186 838.166 190.873V92.4163C840.073 92.0699 843.108 91.6369 847.27 91.1174C851.432 90.4246 855.42 90.0783 859.235 90.0783C863.224 90.0783 866.692 90.4246 869.64 91.1174C872.761 91.6369 875.362 92.6761 877.443 94.2347C879.524 95.7934 881.085 97.9583 882.126 100.729C883.166 103.5 883.686 107.137 883.686 111.64V191.653Z" fill="white"/>
<path d="M961.998 198.926V248.804C960.091 249.324 957.056 249.844 952.894 250.363C948.906 250.883 944.917 251.142 940.929 251.142C936.94 251.142 933.385 250.796 930.264 250.103C927.316 249.584 924.801 248.545 922.72 246.986C920.813 245.427 919.339 243.262 918.298 240.491C917.258 237.72 916.738 234.083 916.738 229.581V107.224C916.738 103.587 917.691 100.816 919.599 98.9108C921.68 96.8326 924.454 95.1873 927.923 93.975C933.819 91.8967 940.668 90.4246 948.472 89.5587C956.276 88.5196 964.599 88 973.443 88C997.374 88 1015.41 93.0224 1027.55 103.067C1039.69 113.112 1045.76 126.707 1045.76 143.853C1045.76 154.591 1042.98 163.769 1037.43 171.39C1031.88 179.01 1025.29 184.898 1017.66 189.055C1023.91 197.541 1030.06 205.508 1036.13 212.955C1042.2 220.402 1046.97 227.156 1050.44 233.218C1048.7 239.279 1045.5 243.955 1040.81 247.246C1036.31 250.363 1031.19 251.922 1025.47 251.922C1021.65 251.922 1018.36 251.489 1015.58 250.623C1012.81 249.757 1010.38 248.545 1008.3 246.986C1006.22 245.427 1004.31 243.522 1002.58 241.271C1000.84 239.019 999.195 236.595 997.634 233.997L975.784 198.926H961.998ZM978.386 164.376C984.975 164.376 990.178 162.73 993.993 159.44C997.808 155.976 999.715 150.954 999.715 144.372C999.715 137.791 997.548 132.855 993.212 129.565C989.05 126.101 982.374 124.369 973.183 124.369C970.582 124.369 968.501 124.456 966.94 124.629C965.38 124.802 963.646 125.062 961.738 125.408V164.376H978.386Z" fill="white"/>
<path d="M1075.25 116.576C1075.25 109.129 1077.41 103.24 1081.75 98.9108C1086.09 94.5811 1091.98 92.4163 1099.44 92.4163H1185.28C1186.49 94.3213 1187.53 96.8326 1188.4 99.9499C1189.44 103.067 1189.96 106.358 1189.96 109.822C1189.96 116.403 1188.49 121.079 1185.54 123.85C1182.76 126.621 1179.03 128.006 1174.35 128.006H1119.47V152.166H1177.99C1179.21 154.071 1180.25 156.582 1181.12 159.7C1182.16 162.644 1182.68 165.848 1182.68 169.311C1182.68 175.893 1181.29 180.569 1178.51 183.34C1175.74 186.111 1172.01 187.496 1167.33 187.496H1119.47V214.773H1186.32C1187.53 216.678 1188.57 219.189 1189.44 222.307C1190.48 225.424 1191 228.715 1191 232.178C1191 238.76 1189.53 243.522 1186.58 246.466C1183.8 249.237 1180.08 250.623 1175.39 250.623H1099.44C1091.98 250.623 1086.09 248.458 1081.75 244.128C1077.41 239.799 1075.25 233.91 1075.25 226.463V116.576Z" fill="white"/>
<defs>
<radialGradient id="paint0_radial" cx="0" cy="0" r="1" gradientUnits="userSpaceOnUse" gradientTransform="translate(97.9765 246.758) scale(244.653)">
<stop stop-color="#4FD1C5"/>
<stop offset="1" stop-color="#3B82F6"/>
</radialGradient>
<radialGradient id="paint1_radial" cx="0" cy="0" r="1" gradientUnits="userSpaceOnUse" gradientTransform="translate(97.9765 246.758) scale(244.653)">
<stop stop-color="#4FD1C5"/>
<stop offset="1" stop-color="#3B82F6"/>
</radialGradient>
<radialGradient id="paint2_radial" cx="0" cy="0" r="1" gradientUnits="userSpaceOnUse" gradientTransform="translate(97.9765 246.758) scale(244.653)">
<stop stop-color="#4FD1C5"/>
<stop offset="1" stop-color="#3B82F6"/>
</radialGradient>
<radialGradient id="paint3_radial" cx="0" cy="0" r="1" gradientUnits="userSpaceOnUse" gradientTransform="translate(97.9765 246.758) scale(244.654)">
<stop stop-color="#4FD1C5"/>
<stop offset="1" stop-color="#3B82F6"/>
</radialGradient>
<radialGradient id="paint4_radial" cx="0" cy="0" r="1" gradientUnits="userSpaceOnUse" gradientTransform="translate(97.9765 246.758) scale(244.653 244.653)">
<stop stop-color="#4FD1C5"/>
<stop offset="1" stop-color="#3B82F6"/>
</radialGradient>
<radialGradient id="paint5_radial" cx="0" cy="0" r="1" gradientUnits="userSpaceOnUse" gradientTransform="translate(97.9766 246.758) scale(244.653)">
<stop stop-color="#4FD1C5"/>
<stop offset="1" stop-color="#3B82F6"/>
</radialGradient>
</defs>
</svg>
